<?xml version="1.0" ?><svg viewBox="0 0 24 24" xmlns="http://www.w3.org/2000/svg"><defs><style>.cls-1,.cls-2{fill:none;}.cls-2{stroke:#000;stroke-linecap:round;stroke-linejoin:round;}</style></defs><g data-name="Layer 2" id="Layer_2"><g id="Workspace"><rect class="cls-1" height="24" width="24"/><path class="cls-2" d="M16,7h0a2,2,0,0,0-2,2H12a4,4,0,0,1,4-4h0V9a4,4,0,0,1-4,4h0A4,4,0,0,1,8,9V6.5A1.5,1.5,0,0,1,9.5,5h0A1.5,1.5,0,0,1,11,6.5V8a1,1,0,0,0,1,1h1"/><line class="cls-2" x1="12" x2="11.97" y1="13" y2="20"/><line class="cls-2" x1="7" x2="16" y1="15" y2="15"/><polyline class="cls-2" points="8 14 7 15 8 16"/><polyline class="cls-2" points="17 14 16 15 17 16"/><line class="cls-2" x1="14" x2="16" y1="9" y2="9"/><line class="cls-2" x1="9" x2="7" y1="7" y2="7"/></g></g></svg>