<?xml version="1.0" encoding="iso-8859-1"?>
<!-- Generator: Adobe Illustrator 19.1.0, SVG Export Plug-In . SVG Version: 6.00 Build 0)  -->
<svg version="1.1" id="Capa_1" xmlns="http://www.w3.org/2000/svg" xmlns:xlink="http://www.w3.org/1999/xlink" x="0px" y="0px"
	 viewBox="0 0 61.541 61.541" style="enable-background:new 0 0 61.541 61.541;" xml:space="preserve">
<g>
	<g id="group-8svg">
		<path id="path-1_28_" d="M14.298,55.489c-0.827,0-1.498-0.898-1.5-1.726c-0.002-0.828,0.668-1.616,1.496-1.619l24.472-0.122
			c4.35-0.009,8.583-4.214,8.709-8.622c0.063-2.238-0.866-4.899-2.16-6.172c-1.451-1.427-3.356-2.217-5.405-2.194
			c-2.034,0.017-3.94,0.822-5.367,2.273c-1.085,1.103-1.676,2.561-1.662,4.109c0.012,1.547,0.628,2.996,1.732,4.081
			c1.668,1.64,4.389,1.649,6.065,0.016c0.676-0.659,0.999-1.614,0.882-2.62c-0.142-1.236-0.753-2.13-1.678-2.452
			c-0.814-0.284-1.695-0.081-2.303,0.526c-0.586,0.586-1.535,0.586-2.121,0c-0.586-0.586-0.586-1.536,0-2.121
			c1.431-1.43,3.503-1.904,5.412-1.238c2.023,0.706,3.397,2.553,3.671,4.942c0.223,1.937-0.423,3.8-1.772,5.112
			c-2.835,2.761-7.438,2.748-10.259-0.027c-1.675-1.646-2.609-3.847-2.629-6.195c-0.021-2.349,0.876-4.566,2.523-6.241
			c1.989-2.022,4.645-3.148,7.481-3.172c2.85-0.014,5.511,1.059,7.534,3.047c1.886,1.854,3.141,5.302,3.054,8.382
			c-0.171,6.011-5.749,11.726-11.701,11.739l-24.47,0.294C14.301,55.489,14.299,55.489,14.298,55.489z"/>
		<path id="path-2_27_" d="M54.925,54.622c-0.394,0-0.787-0.155-1.082-0.461c-0.574-0.597-0.555-1.547,0.043-2.121
			c2.99-2.873,4.599-6.774,4.654-11.28c0.088-7.216-4.534-13.262-11.24-14.702c-5.619-1.206-11.074,0.627-14.601,4.902
			c-0.425,0.513-1.135,0.686-1.743,0.426c-1.548-0.656-3.15-0.99-4.764-0.99c-5.059,0-9.516,3.046-11.356,7.759
			c-0.27,0.692-1.015,1.08-1.729,0.917c-1.789-0.404-4.204-0.518-7.067,2.218c-1.719,1.644-2.661,3.689-2.652,5.757
			c0.005,1.163,0.264,2.277,0.773,3.313c0.365,0.743,0.059,1.642-0.686,2.007c-0.744,0.367-1.642,0.059-2.007-0.685
			c-0.71-1.446-1.074-3.001-1.08-4.623c-0.012-2.899,1.259-5.718,3.579-7.937c2.619-2.503,5.437-3.553,8.567-3.188
			c2.532-5.225,7.769-8.538,13.658-8.538c1.663,0,3.311,0.281,4.913,0.835c4.215-4.5,10.561-6.451,16.824-5.106
			c7.991,1.716,13.714,9.148,13.611,17.672c-0.066,5.328-1.993,9.963-5.576,13.406C55.673,54.483,55.299,54.622,54.925,54.622z"/>
		<path id="path-3_23_" d="M30.614,14.396c-0.203,0-0.41-0.041-0.607-0.129c-0.758-0.337-1.099-1.223-0.763-1.98l2.373-5.343
			c0.337-0.757,1.223-1.1,1.98-0.763s1.098,1.223,0.762,1.98l-2.373,5.344C31.737,14.064,31.189,14.396,30.614,14.396z"/>
		<path id="path-4_23_" d="M7.467,23.31c-0.203,0-0.41-0.042-0.608-0.13l-5.343-2.373c-0.758-0.336-1.099-1.222-0.763-1.979
			c0.335-0.757,1.222-1.1,1.979-0.762l5.344,2.372c0.758,0.336,1.099,1.222,0.763,1.98C8.591,22.977,8.042,23.31,7.467,23.31z"/>
		<path id="path-5_21_" d="M40.303,22.24c-0.603,0-1.17-0.365-1.4-0.96c-0.298-0.774,0.087-1.642,0.861-1.94l4.084-1.572
			c0.768-0.297,1.639,0.087,1.938,0.86c0.298,0.774-0.087,1.641-0.86,1.94l-4.084,1.572C40.665,22.208,40.482,22.24,40.303,22.24z"
			/>
		<path id="path-6_21_" d="M1.5,37.182c-0.603,0-1.17-0.366-1.399-0.961c-0.298-0.774,0.086-1.641,0.86-1.94l5.105-1.965
			c0.774-0.297,1.64,0.087,1.939,0.861c0.298,0.773-0.087,1.641-0.861,1.938l-5.105,1.966C1.861,37.15,1.68,37.182,1.5,37.182z"/>
		<path id="path-7_16_" d="M17.125,15.336c-0.603,0-1.17-0.365-1.4-0.961l-2.359-6.127c-0.298-0.773,0.087-1.641,0.86-1.939
			C15,6.013,15.867,6.396,16.165,7.17l2.359,6.127c0.298,0.773-0.087,1.641-0.86,1.939C17.486,15.304,17.305,15.336,17.125,15.336z"
			/>
		<path id="path-8_13_" d="M12.072,38.214c-0.171,0-0.346-0.03-0.515-0.092c-0.384-0.141-1.183-0.433-2.541-3.489
			c-1.519-3.939-1.414-8.157,0.269-11.947c1.683-3.789,4.74-6.697,8.609-8.187c3.872-1.489,8.087-1.383,11.876,0.299
			c3.79,1.683,6.698,4.74,8.187,8.609c0.298,0.774-0.087,1.642-0.86,1.939c-0.776,0.297-1.643-0.087-1.939-0.861
			c-1.202-3.121-3.548-5.587-6.604-6.945c-3.059-1.358-6.462-1.443-9.581-0.241c-3.123,1.202-5.588,3.548-6.946,6.605
			c-1.357,3.057-1.443,6.459-0.241,9.581c0.334,0.745,0.833,1.656,1.071,1.95c0.597,0.365,0.873,1.112,0.623,1.793
			C13.259,37.836,12.683,38.214,12.072,38.214z"/>
	</g>
</g>
<g>
</g>
<g>
</g>
<g>
</g>
<g>
</g>
<g>
</g>
<g>
</g>
<g>
</g>
<g>
</g>
<g>
</g>
<g>
</g>
<g>
</g>
<g>
</g>
<g>
</g>
<g>
</g>
<g>
</g>
</svg>
